<svg width="528" height="306" viewBox="0 0 528 306" fill="none" xmlns="http://www.w3.org/2000/svg">
<path d="M144.442 1H166.442V141H144.442V1Z" stroke="black" stroke-width="2"/>
<path d="M190.119 22.2H182.919V1H204.119V20L191.919 46.2H181.719L190.119 22.2Z" stroke="black" stroke-width="2"/>
<path d="M227.067 1H256.867L279.667 141H257.667L253.667 113.2V113.6H228.667L224.667 141H204.267L227.067 1ZM251.067 94.6L241.267 25.4H240.867L231.267 94.6H251.067Z" stroke="black" stroke-width="2"/>
<path d="M290.341 1H321.741L335.741 101.2H336.141L350.141 1H381.541V141H360.741V35H360.341L344.341 141H325.941L309.941 35H309.541V141H290.341V1Z" stroke="black" stroke-width="2"/>
<path d="M33.6867 305C23.02 305 14.9534 302 9.48671 296C4.02004 289.867 1.28671 281.133 1.28671 269.8V261.8H22.0867V271.4C22.0867 280.467 25.8867 285 33.4867 285C37.2201 285 40.02 283.933 41.8867 281.8C43.8867 279.533 44.8867 275.933 44.8867 271C44.8867 265.133 43.5534 260 40.8867 255.6C38.22 251.067 33.2867 245.667 26.0867 239.4C17.02 231.4 10.6867 224.2 7.08671 217.8C3.48671 211.267 1.68671 203.933 1.68671 195.8C1.68671 184.733 4.48671 176.2 10.0867 170.2C15.6867 164.067 23.82 161 34.4867 161C45.02 161 52.9534 164.067 58.2867 170.2C63.7534 176.2 66.4867 184.867 66.4867 196.2V202H45.6867V194.8C45.6867 190 44.7534 186.533 42.8867 184.4C41.02 182.133 38.2867 181 34.6867 181C27.3534 181 23.6867 185.467 23.6867 194.4C23.6867 199.467 25.02 204.2 27.6867 208.6C30.4867 213 35.4867 218.333 42.6867 224.6C51.8867 232.6 58.22 239.867 61.6867 246.4C65.1534 252.933 66.8867 260.6 66.8867 269.4C66.8867 280.867 64.02 289.667 58.2867 295.8C52.6867 301.933 44.4867 305 33.6867 305Z" stroke="black" stroke-width="2"/>
<path d="M111.501 305C100.834 305 92.7008 302 87.1008 296C81.5008 289.867 78.7008 281.133 78.7008 269.8V163H100.701V271.4C100.701 276.2 101.634 279.667 103.501 281.8C105.501 283.933 108.301 285 111.901 285C115.501 285 118.234 283.933 120.101 281.8C122.101 279.667 123.101 276.2 123.101 271.4V163H144.301V269.8C144.301 281.133 141.501 289.867 135.901 296C130.301 302 122.167 305 111.501 305Z" stroke="black" stroke-width="2"/>
<path d="M188.57 305C177.903 305 169.836 302 164.37 296C158.903 289.867 156.17 281.133 156.17 269.8V261.8H176.97V271.4C176.97 280.467 180.77 285 188.37 285C192.103 285 194.903 283.933 196.77 281.8C198.77 279.533 199.77 275.933 199.77 271C199.77 265.133 198.436 260 195.77 255.6C193.103 251.067 188.17 245.667 180.97 239.4C171.903 231.4 165.57 224.2 161.97 217.8C158.37 211.267 156.57 203.933 156.57 195.8C156.57 184.733 159.37 176.2 164.97 170.2C170.57 164.067 178.703 161 189.37 161C199.903 161 207.836 164.067 213.17 170.2C218.636 176.2 221.37 184.867 221.37 196.2V202H200.57V194.8C200.57 190 199.636 186.533 197.77 184.4C195.903 182.133 193.17 181 189.57 181C182.236 181 178.57 185.467 178.57 194.4C178.57 199.467 179.903 204.2 182.57 208.6C185.37 213 190.37 218.333 197.57 224.6C206.77 232.6 213.103 239.867 216.57 246.4C220.036 252.933 221.77 260.6 221.77 269.4C221.77 280.867 218.903 289.667 213.17 295.8C207.57 301.933 199.37 305 188.57 305Z" stroke="black" stroke-width="2"/>
<path d="M234.384 163H256.384V220H279.984V163H301.984V303H279.984V240H256.384V303H234.384V163Z" stroke="black" stroke-width="2"/>
<path d="M318.368 163H349.768L363.768 263.2H364.168L378.168 163H409.568V303H388.768V197H388.368L372.368 303H353.968L337.968 197H337.568V303H318.368V163Z" stroke="black" stroke-width="2"/>
<path d="M425.985 163H447.985V303H425.985V163Z" stroke="black" stroke-width="2"/>
<path d="M481.662 183H458.662V163H526.662V183H503.662V303H481.662V183Z" stroke="black" stroke-width="2"/>
</svg>
